<?xml version="1.0" encoding="UTF-8" standalone="no"?><!DOCTYPE svg PUBLIC "-//W3C//DTD SVG 1.1//EN" "http://www.w3.org/Graphics/SVG/1.1/DTD/svg11.dtd"><svg width="100%" height="100%" viewBox="0 0 9485 6001" version="1.1" xmlns="http://www.w3.org/2000/svg" xmlns:xlink="http://www.w3.org/1999/xlink" xml:space="preserve" xmlns:serif="http://www.serif.com/" style="fill-rule:evenodd;clip-rule:evenodd;stroke-linejoin:round;stroke-miterlimit:2;"><rect id="画板1" x="0.189" y="0.046" width="9484.25" height="6000" style="fill:none;"/><g><g><path d="M3974.94,3940.06c-111.246,136.28 -391.886,-406.802 -595.705,-201.684c-139.364,140.253 81.356,213.31 208.131,226.294c244.144,25.004 704.45,87.726 467.138,437.516c-236.129,348.046 -576.373,341.231 -973.301,109.577c-104.293,-60.866 101.598,-319.082 172.653,-248.795c71.054,70.287 451.672,390.908 599.235,150.348c243.773,-397.401 -1000.81,20.627 -760.404,-526.74c226.113,-514.822 687.466,-445.14 947.583,-232.254c133.528,109.283 1.375,204.022 -65.33,285.738Z"/><path d="M6440.42,3940.06c-111.246,136.28 -391.886,-406.802 -595.705,-201.684c-139.364,140.253 81.356,213.31 208.131,226.294c244.143,25.004 704.45,87.726 467.138,437.516c-236.13,348.046 -576.373,341.231 -973.302,109.577c-104.292,-60.866 101.599,-319.082 172.653,-248.795c71.054,70.287 451.673,390.908 599.236,150.348c243.773,-397.401 -1000.81,20.627 -760.404,-526.74c226.113,-514.822 687.466,-445.14 947.582,-232.254c133.528,109.283 1.375,204.022 -65.329,285.738Z"/><path d="M7393.73,2009.15c-437.322,704.412 -969.523,2696.62 -578.165,2666.6c391.358,-30.025 303.78,-226.032 186,-238.653c-117.78,-12.621 -209.591,-1106.56 844.165,-2288.05c63.514,-71.213 -372.274,-268.313 -452,-139.896Z"/><path d="M6465.32,2706.74c-963.9,363.891 -2733.81,841.161 -3826.48,115.472c-1425.35,-946.631 -1919.23,-289.163 -1373.31,352.179c-936.242,-171.617 -1242.97,1327.73 178.079,1501.69c183.488,-66.82 305.429,-469.677 191.653,-464.176c-1191.39,57.611 -1391.65,-1149.82 -46,-651.334c289.684,107.312 463.124,-255.605 202.866,-374.811c-957.991,-438.79 -335.507,-867.625 459.946,-312.678c1346.96,939.707 3245.15,460.433 4101.24,22.089c218.531,-111.894 257.536,-243.377 112,-188.435Z"/><path d="M2719.98,3551.38c-405.454,-133.859 -797.393,-99.984 -918.193,442.721c-120.801,542.705 266.5,628.798 711.811,547.405c23.991,167.878 117.422,259.631 383.811,70c85.294,-60.717 -176.153,-253.495 -57.728,-617.405c145.662,-447.606 374.176,-396.312 175.114,-500.023c-181.775,-94.705 -251.333,-40.81 -294.815,57.302Zm-109.571,310.183c-35.433,107.654 -100.806,218.172 -108.494,476.766c-2.544,85.557 -409.013,119.242 -420.831,-219.886c-14.924,-428.274 418.998,-337.46 529.325,-256.88Z"/><path d="M3575.14,5274.37c4.008,64.326 584.484,238.44 1069,27.766c705.989,-306.972 780.56,-1554.92 798.133,-1703.51c17.574,-148.585 -348.749,-306.794 -346,-104.551c7.696,566.026 -238.415,1000.29 -517,1004.29c-278.584,4.004 -44.099,-232.689 64.867,-595.14c108.966,-362.451 -30.794,-407.254 -82.867,-421.427c-52.072,-14.173 -204.647,94.574 -270,181.116c-65.352,86.542 80.795,56.228 93,131.428c27.416,168.913 -394.438,875.672 178,879.023c395.515,2.315 452,-185 452,-185c0,-0 -160.255,1096.36 -1268,500c-104.473,-56.244 -178.558,166.901 -171.136,286Z"/><path d="M7172.63,3659.24c-60.063,57.748 99.323,278.422 143.076,242.834c43.755,-35.591 68.624,-31.661 43.246,15.593c-73.416,136.702 -390.064,781.613 35.544,757.87c419.071,-23.379 306.057,-223.447 224.183,-355.437c-70.36,-113.427 -122.987,-46.437 -197.183,-21c-8.969,-97.65 146.333,-479.526 390.008,-638.86c87.702,-57.346 -196.453,-265.248 -359.898,-201.002c-156.503,61.519 -218.913,142.255 -278.976,200.002Zm706.91,-475.173c274.236,-215.41 -124.477,-418.257 -219.858,-225.543c-90.186,182.22 -221.518,166.858 -203.374,247.673c10.538,46.938 291.217,81.567 423.232,-22.13Z"/><path d="M7936.32,3484.84c99.041,78.883 130.03,220.53 -29.561,841.697c-174.65,679.786 -388.674,906.05 -558.604,1002.58c-146.13,83.007 325.57,255.868 409.532,175c90.991,-87.638 205.379,-470.881 327.066,-954.446c429.472,208.974 819.284,149.94 918.749,-477.533c106.716,-673.216 -580.84,-574.99 -758.092,-521.293c4.235,-71.803 9.613,-159.31 -36.592,-202.54c-42.101,-39.39 -323.111,96.228 -272.498,136.54Zm215.749,800.937c172.696,131.633 580.976,237.83 619.508,-161.644c37.472,-388.482 -388.583,-367.205 -557.978,-253.08c-10.698,124.417 -33.699,290.324 -61.53,414.724Z"/></g><path d="M6845.27,566.529c469.867,316.08 93.376,684.516 93.376,684.516c0,-0 501.903,416.203 180.025,619.529c-566.262,357.699 -719.804,-64.801 -1203.4,582.25c-389.361,520.963 -1039.16,-118.674 -1219,113.75c-116.364,150.385 -225.849,305.466 -419.848,402.759c-234.42,117.565 -617.971,54.709 -720.299,-254.201c-79.455,-239.859 360.152,-211.914 552.147,-221.558c132.33,-300.925 305,-443.135 305,-443.135c-0,-0 -456.719,-426.534 -760.866,-234.865c-163.811,103.23 -707.389,-413.341 -367.078,-688c180.107,-145.362 344.01,209.097 443.078,197c1097.19,-133.986 1036.17,317.002 1568.87,132c247.28,-85.88 -48.932,-819.097 278,-931c325.732,-111.493 615.568,108 615.568,108c-0,-0 298.095,-306.754 654.432,-67.045Z" style="fill:#aa73ff;"/><path d="M6845.27,566.529c469.867,316.08 93.376,684.516 93.376,684.516c0,-0 501.903,416.203 180.025,619.529c-566.262,357.699 -719.804,-64.801 -1203.4,582.25c-389.361,520.963 -1039.16,-118.674 -1219,113.75c-116.364,150.385 -225.849,305.466 -419.848,402.759c-234.42,117.565 -617.971,54.709 -720.299,-254.201c-79.455,-239.859 360.152,-211.914 552.147,-221.558c132.33,-300.925 293.189,-466.757 293.189,-466.757c-0,-0 -444.908,-402.912 -749.055,-211.243c-163.811,103.23 -707.389,-413.341 -367.078,-688c180.107,-145.362 344.01,209.097 443.078,197c1097.19,-133.986 1036.17,317.002 1568.87,132c247.28,-85.88 -48.932,-819.097 278,-931c325.732,-111.493 615.568,108 615.568,108c-0,-0 298.095,-306.754 654.432,-67.045Zm-797,344.045c-0,-0 -297.703,-1.344 -136,237c103.341,152.321 271.831,152.767 307,-175c35.169,-327.768 291.182,-430.026 454,-284c141.014,126.469 216.149,547.315 -134.783,579.763c-381.921,35.312 -555.802,286.119 -288.217,355.237c267.584,69.117 536.239,-5.376 265,-193c153.582,-3.476 243.378,-54 243.378,-54c-0,-0 279.492,218.497 212.811,305.811c-66.681,87.313 -143.473,168.697 -535.189,166.378c-480.7,-2.847 -461.356,468.218 -924,563.872c-292.177,60.409 -499.182,-211.763 -839,-59.835c-202.234,90.416 -257.427,412.618 -508,477.396c-181.653,46.961 -319.312,-12.834 -381.189,-107.622c-103.634,-158.754 279.797,-7.303 395.189,-74.567c106.957,-62.348 182.165,-492.048 553,-597.568c301.039,-85.661 443.448,64.842 375.496,-68c-24.99,-48.855 -204.167,-129.872 -515.99,-68.038c-186.247,-179.854 -658.467,-417.093 -939.519,-286.606c-178.442,82.847 -331.167,-251.855 -305.189,-307.657c71.803,-154.232 140.297,232.896 539.591,155.544c616.665,-119.46 1110.2,483.966 1728.61,55.512c381.902,-264.596 105.919,-376.734 -6.747,-278.452c-0.355,-238.989 -11.09,-476.394 83.973,-534.919c147.175,-90.608 379.478,103.115 379.478,103.115l-23.704,89.636Z"/><path d="M3045.11,2599.86c-78.107,-129.367 192.491,-432.395 273.517,-111.764c61.912,244.996 216.39,301.896 106.293,353.642c-44.485,20.908 -251.613,-29.55 -379.81,-241.878Z"/><path d="M2715.82,2688.11c-141.639,-103.198 74.061,-273.266 161.336,-98.072c78.735,158.049 147.591,94.376 129.07,166.096c-10.757,41.656 -159.016,27.706 -290.406,-68.024Z"/><path d="M4939.79,2904.28c190.519,-124.693 -99.62,-330.188 -217.015,-118.5c-105.906,190.972 -198.525,114.034 -173.611,200.695c14.469,50.332 213.892,33.477 390.626,-82.195Z"/></g></svg>